# xmcd
#
# Track frame offsets: 
#        150
#        23153
#        36553
#        48527
#        78844
#        94140
#        111170
#        129523
#        162205
#        183777
#        211687
#        232991
#        261602
#        277181
#        287971
#        297981
#
# Disc length: 4448 seconds
#
# Revision: 0
# Processed by: cddbd v1.5.1PL2 Copyright (c) Steve Scherf et al.
# Submitted via: ExactAudioCopy v0.95b3
#
DISCID=ed115e10
DTITLE=Lyle Lovett - Friend of the Devil - Disc 1
DYEAR=1900
DGENRE=Country
TTITLE0=Just the Morning
TTITLE1=Texas Trilogy - Daybreak
TTITLE2=Texas Trilogy - Train Ride
TTITLE3=Texas Trilogy - Bosque County Romance
TTITLE4=Flyin' Shoes
TTITLE5=Don't Touch My Hat
TTITLE6=One-Eyed Fiona
TTITLE7=I've Been to Memphis
TTITLE8=That's Right (You're Not From Texas)
TTITLE9=She's No Lady
TTITLE10=Friend of the Devil
TTITLE11=She's Already Made Up Her Mind
TTITLE12=Bears
TTITLE13=Penguins
TTITLE14=Lungs
TTITLE15=You've Been So Good Up to Now
EXTD=
EXTT0=
EXTT1=
EXTT2=
EXTT3=
EXTT4=
EXTT5=
EXTT6=
EXTT7=
EXTT8=
EXTT9=
EXTT10=
EXTT11=
EXTT12=
EXTT13=
EXTT14=
EXTT15=
PLAYORDER=
